<svg
   xmlns="http://www.w3.org/2000/svg"
   x="0px"
   y="0px"
   width="800px"
   height="800px"
   viewBox="0 0 800 800"
   enable-background="new 0 0 800 800"
   xml:space="preserve">
<g
   id="g1235"
   style="opacity:0">
	<circle
      fill="#608F90"
      stroke="#608F90"
      stroke-width="2"
      stroke-miterlimit="10"
      cx="400.135"
      cy="400.135"
      r="400.135"
      id="circle1231" />
	<circle
      fill="#FFFAF1"
      stroke="#608F90"
      stroke-width="2"
      stroke-miterlimit="10"
      cx="400.134"
      cy="400.136"
      id="circle1233"
      r="348.648"
      style="fill:#608f90;fill-opacity:1;opacity:0" />
<path
   style="opacity:0;fill:none;fill-opacity:1;stroke-width:0;stroke-dashoffset:5.00001;paint-order:fill markers stroke"
   d="m 386.70292,748.97202 c -0.4761,-0.50412 -6.07025,-1.22138 -12.43145,-1.59393 -11.13787,-0.65228 -18.32064,-1.37806 -27.65355,-2.79422 -2.41317,-0.36617 -7.31079,-1.08986 -10.8836,-1.60821 -3.57281,-0.51833 -7.59964,-1.53306 -8.94848,-2.25494 -1.34884,-0.72188 -2.82425,-0.94068 -3.2787,-0.48625 -0.45443,0.45444 -1.66293,0.30915 -2.68555,-0.32286 -1.02263,-0.63202 -3.80312,-1.36192 -6.17887,-1.622 -2.37577,-0.2601 -5.2026,-1.20575 -6.28187,-2.10146 -1.07927,-0.89572 -1.96231,-1.13834 -1.96231,-0.53916 0,0.59919 -0.88322,0.35641 -1.96272,-0.53949 -1.07949,-0.8959 -2.37986,-1.21177 -2.8897,-0.70192 -0.50985,0.50983 -1.93009,0.0945 -3.15611,-0.92303 -1.22603,-1.01751 -2.22913,-1.35978 -2.22913,-0.7606 0,0.59918 -0.98721,0.27011 -2.19379,-0.73126 -1.20658,-1.00138 -2.19378,-1.33045 -2.19378,-0.73126 0,0.59918 -0.9872,0.27011 -2.19379,-0.73127 -1.20658,-1.00137 -2.19378,-1.33044 -2.19378,-0.73126 0,0.59918 -0.9872,0.27012 -2.19378,-0.73126 -1.20659,-1.00137 -2.19379,-1.33044 -2.19379,-0.73126 0,0.59918 -0.9872,0.27011 -2.19378,-0.73126 -1.20658,-1.00138 -2.19379,-1.33533 -2.19379,-0.74213 0,0.5932 -1.64533,4.7e-4 -3.6563,-1.31716 -2.01097,-1.31765 -3.65631,-2.02832 -3.65631,-1.57928 0,0.44904 -1.48081,-0.004 -3.29068,-1.00826 -1.80987,-1.00358 -3.78428,-1.68487 -4.38757,-1.51398 -0.60329,0.1709 -1.09689,-0.45711 -1.09689,-1.39556 0,-0.93845 -0.37057,-1.3357 -0.8235,-0.88277 -0.99431,0.99431 -30.41387,-13.34388 -31.11128,-15.16269 -0.26981,-0.7036 -1.09248,-0.90728 -1.82816,-0.45259 -0.73568,0.45467 -1.33761,0.12971 -1.33761,-0.72215 0,-0.85186 -0.94019,-1.54884 -2.08931,-1.54884 -1.14914,0 -2.96904,-0.82267 -4.04426,-1.82816 -1.0752,-1.00548 -4.4129,-3.08352 -7.41708,-4.61787 -3.00417,-1.53435 -5.46214,-3.34422 -5.46214,-4.02194 0,-0.67771 -0.98721,-1.23222 -2.19379,-1.23222 -1.20658,0 -2.19378,-0.65813 -2.19378,-1.46252 0,-0.80439 -1.00786,-1.46252 -2.23968,-1.46252 -1.23184,0 -2.61852,-0.9872 -3.08152,-2.19379 -0.46302,-1.20658 -1.75863,-2.19378 -2.87915,-2.19378 -1.12052,0 -2.03731,-0.65813 -2.03731,-1.46252 0,-0.80439 -0.85463,-1.46253 -1.89917,-1.46253 -1.04454,0 -4.63885,-2.63254 -7.98737,-5.85009 -3.34851,-3.21755 -6.56717,-5.85009 -7.15259,-5.85009 -1.81914,0 -30.01936,-27.54477 -38.97861,-38.07266 -3.05839,-3.59385 -6.84267,-7.87371 -8.40951,-9.51077 -1.56684,-1.63706 -2.8488,-3.40632 -2.8488,-3.93167 0,-0.52535 -1.97441,-3.11688 -4.38757,-5.75896 -2.41316,-2.64208 -4.38757,-5.6443 -4.38757,-6.67162 0,-1.02732 -0.58083,-1.86785 -1.29074,-1.86785 -1.58329,0 -13.33449,-17.81178 -13.33449,-20.21165 0,-0.9494 -0.6456,-1.72619 -1.43466,-1.72619 -0.78906,0 -1.84761,-1.64534 -2.352331,-3.65631 -0.504721,-2.01097 -1.543304,-3.6563 -2.307962,-3.6563 -0.764658,0 -1.018279,-0.60193 -0.5636,-1.33761 0.454678,-0.73568 0.243759,-1.55835 -0.468709,-1.82816 -1.924213,-0.72867 -14.815985,-27.0543 -13.763842,-28.10644 0.49681,-0.49682 0.135474,-0.9033 -0.802983,-0.9033 -0.938453,0 -1.566456,-0.4936 -1.395562,-1.09689 0.170895,-0.60329 -0.510397,-2.57769 -1.51398,-4.38757 -1.003582,-1.80987 -1.4573,-3.29067 -1.008262,-3.29067 0.449039,0 -0.153826,-1.48081 -1.3397,-3.29068 -1.185873,-1.80987 -2.216839,-3.77233 -2.291035,-4.36102 -0.07419,-0.5887 -1.026101,-3.22124 -2.115346,-5.85009 -2.967947,-7.16306 -6.626406,-20.13624 -5.678451,-20.13624 0.457329,0 0.154656,-0.82267 -0.672611,-1.82815 -0.827266,-1.00549 -1.85164,-3.80256 -2.276387,-6.21572 -0.424747,-2.41317 -1.454747,-6.62022 -2.28889,-9.34899 -0.834143,-2.72879 -1.195889,-5.48038 -0.803881,-6.11466 0.392009,-0.6343 0.08575,-1.54076 -0.680573,-2.01437 -0.766323,-0.47362 -1.42913,-1.99989 -1.472903,-3.39173 -0.04377,-1.39184 -0.445202,-4.66745 -0.892064,-7.27912 -1.689475,-9.87414 -2.169129,-13.02506 -3.173259,-20.84565 -1.314283,-10.2362 -1.311074,-71.4899 0.0043,-81.17002 0.546498,-4.02194 1.327691,-9.61609 1.735984,-12.43144 0.408293,-2.81536 0.7555,-6.56702 0.77157,-8.33703 0.01607,-1.77 0.648538,-3.60095 1.405485,-4.06878 0.756948,-0.46782 1.002314,-1.82508 0.54526,-3.01615 -0.457054,-1.19106 -0.104954,-3.0404 0.782447,-4.10966 0.8874,-1.06926 1.224194,-2.33336 0.748431,-2.80912 -0.475762,-0.47576 -0.336675,-1.71991 0.309084,-2.76477 0.645758,-1.04485 1.325164,-2.89851 1.50979,-4.11924 0.350124,-2.31497 1.568657,-7.53765 2.053374,-8.80085 0.154331,-0.40219 0.433511,-1.38939 0.620398,-2.19378 0.186888,-0.80439 0.488946,-1.79159 0.671241,-2.19379 0.182293,-0.40219 0.613807,-2.3766 0.95892,-4.38756 0.837483,-4.88 6.584101,-20.7375 8.347591,-23.03474 0.771864,-1.00548 0.918043,-1.82815 0.324844,-1.82815 -0.5932,0 -4.79e-4,-1.64534 1.317159,-3.65631 1.317638,-2.01097 2.034564,-3.65631 1.59317,-3.65631 -0.441393,0 0.336884,-2.13894 1.729507,-4.7532 1.392621,-2.61426 2.396725,-5.2468 2.231342,-5.85009 -0.165385,-0.60329 0.467125,-1.09689 1.405578,-1.09689 0.938451,0 1.298754,-0.40752 0.800673,-0.90561 -1.052841,-1.05284 8.923296,-21.5243 10.844823,-22.25404 0.710425,-0.2698 0.919671,-1.09247 0.464993,-1.82815 -0.454684,-0.73568 -0.201063,-1.33761 0.563595,-1.33761 0.764658,0 1.803241,-1.64534 2.307962,-3.65631 0.504721,-2.01097 1.602112,-3.65631 2.43864,-3.65631 0.83654,0 1.11423,-0.65813 0.61709,-1.46252 -0.49714,-0.80439 -0.20692,-1.46252 0.64494,-1.46252 0.85186,0 1.54884,-0.9872 1.54884,-2.19379 0,-1.20658 0.65814,-2.19378 1.46252,-2.19378 0.80439,0 1.46253,-0.9872 1.46253,-2.19378 0,-1.20658 0.65813,-2.19379 1.46252,-2.19379 0.80439,0 1.46252,-0.9872 1.46252,-2.19378 0,-1.20658 1.31627,-3.51006 2.92505,-5.11883 1.60877,-1.60878 2.92504,-3.58318 2.92504,-4.38757 0,-0.80439 0.65814,-1.46252 1.46253,-1.46252 0.80438,0 1.46252,-1.00786 1.46252,-2.23969 0,-1.23183 0.9872,-2.61851 2.19378,-3.08152 1.20659,-0.46301 2.19379,-1.75304 2.19379,-2.86675 0,-1.1137 1.31627,-2.84694 2.92504,-3.85164 1.60878,-1.00469 2.92505,-2.41561 2.92505,-3.13536 0,-0.71975 1.4808,-2.82512 3.29068,-4.6786 1.80987,-1.85347 6.58135,-7.13449 10.60329,-11.73558 8.65037,-9.89604 13.62137,-14.86644 24.72094,-24.71799 4.53145,-4.02194 9.7833,-8.79342 11.67079,-10.60329 1.88749,-1.80988 4.15585,-3.29068 5.04079,-3.29068 0.88494,0 2.31343,-1.31627 3.17442,-2.92505 0.86099,-1.60877 2.45907,-2.92504 3.55129,-2.92504 1.09222,0 2.36468,-0.9872 2.82769,-2.19379 0.46301,-1.20658 1.84969,-2.19378 3.08153,-2.19378 1.23182,0 2.23968,-0.65814 2.23968,-1.46252 0,-0.80439 0.65813,-1.46253 1.46252,-1.46253 0.80439,0 2.77879,-1.31627 4.38757,-2.92504 1.60877,-1.60878 3.91225,-2.92505 5.11883,-2.92505 1.20658,0 2.19378,-0.65813 2.19378,-1.46252 0,-0.80439 0.68566,-1.46252 1.52367,-1.46252 0.83803,0 2.91211,-1.29352 4.60907,-2.87447 1.69695,-1.58096 3.64385,-2.52933 4.32641,-2.10748 0.68257,0.42186 1.24103,0.0826 1.24103,-0.75397 0,-0.836532 1.64534,-1.933923 3.65631,-2.438644 2.01097,-0.504721 3.65631,-1.543304 3.65631,-2.307962 0,-0.764658 0.60193,-1.018279 1.33761,-0.563599 0.73568,0.454678 1.55835,0.245431 1.82815,-0.464993 0.72974,-1.921527 21.2012,-11.897665 22.25404,-10.844824 0.49809,0.498081 0.90561,0.02809 0.90561,-1.044427 0,-1.072516 0.43004,-1.519997 0.95563,-0.9944 0.5256,0.525597 3.15814,-0.405594 5.85009,-2.069313 2.69196,-1.663719 4.89446,-2.627026 4.89446,-2.140685 0,0.486343 1.64534,-0.193806 3.65631,-1.511444 2.01097,-1.317638 3.65631,-1.910359 3.65631,-1.31716 0,0.5932 0.82267,0.44702 1.82815,-0.324844 2.10412,-1.615235 17.95456,-7.468715 22.30347,-8.236552 1.60878,-0.284043 3.91225,-0.925355 5.11883,-1.425138 2.12989,-0.88223 8.67717,-2.378051 13.18842,-3.013086 1.22073,-0.171837 3.07439,-0.84078 4.11924,-1.486538 1.04486,-0.645759 2.28901,-0.784846 2.76477,-0.309083 0.47576,0.475762 1.73986,0.138969 2.80912,-0.748432 1.06926,-0.8874 2.9186,-1.239501 4.10966,-0.782447 1.19107,0.457055 2.54833,0.211688 3.01615,-0.545259 0.46783,-0.756947 2.29878,-1.389416 4.06878,-1.405486 1.77001,-0.01607 5.52167,-0.363276 8.33703,-0.77157 2.81535,-0.408293 8.4095,-1.189486 12.43144,-1.735984 4.02194,-0.546497 22.12066,-1.003401 40.21938,-1.01534 29.36711,-0.01937 40.39444,0.542402 52.65082,2.682242 9.26087,1.616853 14.08968,2.320737 16.42459,2.39417 1.39184,0.04377 2.91811,0.70658 3.39173,1.472903 0.47361,0.766324 1.38007,1.072582 2.01437,0.680573 0.63428,-0.392008 3.38587,-0.03026 6.11466,0.803881 2.72877,0.834143 6.93582,1.864143 9.34899,2.28889 2.41316,0.424747 5.21023,1.449121 6.21572,2.276387 1.00548,0.827267 1.82815,1.12994 1.82815,0.672611 0,-0.922521 12.89666,2.679564 19.74406,5.514589 2.41316,0.999121 4.71664,1.8077 5.11883,1.796843 0.40219,-0.01082 2.3766,0.890822 4.38757,2.003727 2.01097,1.112905 3.98537,2.100446 4.38757,2.194535 5.71206,1.336258 8.77513,2.729439 8.77513,3.991191 0,0.851249 0.40648,1.141244 0.9033,0.644434 1.05214,-1.052143 27.37777,11.839629 28.10644,13.763842 0.26981,0.712468 1.09248,0.923387 1.82816,0.468709 0.73568,-0.454679 1.33761,-0.201058 1.33761,0.5636 0,0.764658 1.64533,1.803241 3.6563,2.307962 2.01097,0.504721 3.65631,1.563271 3.65631,2.352331 0,0.78906 0.77679,1.43466 1.72619,1.43466 2.39987,0 20.21165,11.7512 20.21165,13.33449 0,0.70991 0.84053,1.29074 1.86785,1.29074 1.02732,0 4.02954,1.97441 6.67162,4.38757 2.64208,2.41316 5.41571,4.38757 6.16363,4.38757 0.74793,0 2.18189,1.31627 3.18659,2.92504 1.00469,1.60878 2.45102,2.92505 3.21406,2.92505 0.76303,0 3.73087,2.2221 6.59518,4.938 11.12054,10.54436 27.43197,27.09859 33.45413,33.95212 3.46966,3.94864 7.25393,8.22176 8.4095,9.49582 1.15559,1.27406 2.10106,3.06078 2.10106,3.97048 0,0.90971 1.31627,2.35846 2.92505,3.21945 1.60877,0.86099 2.92504,2.22914 2.92504,3.04033 0,0.81119 1.64534,3.24932 3.65631,5.41806 2.01097,2.16874 3.65631,4.77255 3.65631,5.78626 0,1.0137 0.65813,1.8431 1.46252,1.8431 0.80439,0 1.46252,0.9872 1.46252,2.19378 0,1.20658 0.51625,2.19379 1.14719,2.19379 1.15581,0 7.06509,9.14638 6.41186,9.92425 -0.19299,0.22984 0.65981,1.42858 1.89513,2.66389 1.2353,1.23532 2.24601,3.1862 2.24601,4.33534 0,1.14912 0.58409,2.08931 1.29796,2.08931 0.71388,0 3.11608,4.27788 5.33823,9.5064 2.22216,5.22852 4.70937,9.5064 5.52716,9.5064 0.81777,0 1.07115,0.41572 0.56304,0.92382 -0.5081,0.50811 0.69739,3.69019 2.67884,7.07131 1.98147,3.38112 3.16502,6.58514 2.6301,7.12006 -0.53492,0.5349 -0.20474,0.97256 0.73371,0.97256 0.93845,0 1.56646,0.4936 1.39556,1.09689 -0.17089,0.60329 0.5104,2.5777 1.51398,4.38757 1.00358,1.80987 1.4573,3.29068 1.00826,3.29068 -0.44904,0 0.26163,1.64534 1.57928,3.65631 1.31763,2.01097 1.91036,3.6563 1.31716,3.6563 -0.5932,0 -0.25925,0.98721 0.74213,2.19379 1.00137,1.20658 1.33044,2.19378 0.73126,2.19378 -0.59918,0 -0.27011,0.9872 0.73126,2.19379 1.00138,1.20658 1.33044,2.19378 0.73126,2.19378 -0.59918,0 -0.27011,0.9872 0.73126,2.19378 1.00138,1.20659 1.33045,2.19379 0.73127,2.19379 -0.59919,0 -0.27012,0.9872 0.73126,2.19378 1.00137,1.20658 1.33044,2.19379 0.73126,2.19379 -0.59918,0 -0.39305,0.83908 0.45806,1.8646 0.85112,1.02553 1.81773,3.49354 2.14801,5.48446 0.33028,1.99093 1.06586,4.67952 1.63459,5.97467 0.56874,1.29513 1.28273,4.25674 1.58661,6.58135 0.3039,2.32459 0.68189,4.22654 0.83996,4.22654 0.15809,0 0.51943,1.31628 0.803,2.92505 0.28357,1.60878 0.85591,4.57038 1.2719,6.58135 9.03565,43.68094 9.53619,86.78348 1.54979,133.45991 -0.44686,2.61167 -0.84829,5.88728 -0.89207,7.27912 -0.0437,1.39184 -0.70657,2.91811 -1.47289,3.39174 -0.76633,0.47361 -1.01468,1.47377 -0.55188,2.22258 0.46278,0.7488 0.35018,2.15628 -0.2502,3.12775 -0.60039,0.97145 -1.26229,3.36701 -1.47088,5.32344 -0.20859,1.95643 -0.8446,4.61682 -1.41334,5.91195 -0.56873,1.29515 -1.30431,3.98374 -1.63459,5.97467 -0.33028,1.99092 -1.29689,4.45893 -2.14801,5.48446 -0.85111,1.02552 -1.05724,1.8646 -0.45806,1.8646 0.59918,0 0.27011,0.98721 -0.73126,2.19379 -1.00138,1.20658 -1.33045,2.19378 -0.73126,2.19378 0.59918,0 0.27011,0.9872 -0.73127,2.19379 -1.00137,1.20658 -1.33044,2.19378 -0.73126,2.19378 0.59918,0 0.27012,0.9872 -0.73126,2.19378 -1.00137,1.20659 -1.33044,2.19379 -0.73126,2.19379 0.59918,0 0.27011,0.9872 -0.73126,2.19378 -1.00138,1.20658 -1.33533,2.19379 -0.74213,2.19379 0.5932,0 4.7e-4,1.64533 -1.31716,3.6563 -1.31765,2.01097 -1.97578,3.65631 -1.46252,3.65631 0.51324,0 -0.14494,1.64534 -1.46253,3.65631 -1.31764,2.01097 -2.0381,3.65631 -1.60101,3.65631 0.43709,0 -0.66797,2.79707 -2.4557,6.21572 -1.78773,3.41864 -3.11737,6.70932 -2.95477,7.31261 0.1626,0.60329 -0.40134,1.09689 -1.2532,1.09689 -0.85187,0 -1.14209,0.65814 -0.64495,1.46253 0.49714,0.80438 0.16807,1.46252 -0.73126,1.46252 -0.89933,0 -1.2284,0.65813 -0.73126,1.46252 0.49714,0.80439 0.16807,1.46253 -0.73126,1.46253 -0.89934,0 -1.2284,0.65813 -0.73126,1.46252 0.49714,0.80439 0.16807,1.46252 -0.73127,1.46252 -0.89933,0 -1.2284,0.65814 -0.73126,1.46252 0.49714,0.80439 0.25795,1.46253 -0.53152,1.46253 -0.78949,0 -2.19563,2.30347 -3.12478,5.11883 -0.92916,2.81535 -2.29647,5.11883 -3.03847,5.11883 -0.74201,0 -1.23425,0.4936 -1.09388,1.09689 0.4091,1.75817 -3.53029,9.14077 -4.87756,9.14077 -0.67526,0 -1.22775,0.9872 -1.22775,2.19378 0,1.20658 -0.65814,2.19379 -1.46253,2.19379 -0.80438,0 -1.46252,0.9872 -1.46252,2.19378 0,1.20658 -0.65813,2.19378 -1.46252,2.19378 -0.80439,0 -1.46253,0.98721 -1.46253,2.19379 0,1.20658 -0.65813,2.19378 -1.46252,2.19378 -0.80439,0 -1.46252,0.98721 -1.46252,2.19379 0,1.20658 -0.65814,2.19378 -1.46252,2.19378 -0.80439,0 -1.46253,1.00785 -1.46253,2.23968 0,1.23184 -0.9872,2.61851 -2.19378,3.08152 -1.20658,0.46302 -2.19379,1.77929 -2.19379,2.92505 0,1.14577 -0.9872,2.46204 -2.19378,2.92504 -1.20658,0.46302 -2.19378,1.75305 -2.19378,2.86675 0,1.11371 -1.31627,2.84695 -2.92505,3.85164 -1.60877,1.0047 -2.92505,2.45763 -2.92505,3.22871 0,1.73735 -4.287,6.38968 -22.77613,24.71703 -22.02256,21.82988 -23.18334,22.90315 -24.7707,22.90315 -0.81144,0 -2.29736,1.31628 -3.30206,2.92505 -1.00469,1.60878 -2.73793,2.92505 -3.85164,2.92505 -1.1137,0 -2.40373,0.9872 -2.86675,2.19378 -0.463,1.20658 -1.77927,2.19378 -2.92504,2.19378 -1.14576,0 -2.46203,0.98721 -2.92505,2.19379 -0.46301,1.20658 -1.84968,2.19378 -3.08152,2.19378 -1.23183,0 -2.23968,0.65814 -2.23968,1.46253 0,0.80438 -0.9872,1.46252 -2.19378,1.46252 -1.20658,0 -2.19379,0.65813 -2.19379,1.46252 0,0.80439 -0.9872,1.46252 -2.19378,1.46252 -1.20658,0 -2.19379,0.65814 -2.19379,1.46253 0,0.80439 -0.68566,1.46252 -1.52367,1.46252 -0.83802,0 -2.96387,1.34173 -4.72409,2.98165 -1.76024,1.63989 -4.69434,3.35659 -6.52021,3.81485 -1.82588,0.45827 -3.31978,1.45884 -3.31978,2.22351 0,0.76465 -0.65813,0.98353 -1.46252,0.48639 -0.80439,-0.49714 -1.46252,-0.25795 -1.46252,0.53152 0,0.78949 -2.30348,2.19563 -5.11883,3.12479 -2.81536,0.92915 -5.11883,2.33529 -5.11883,3.12478 0,0.78947 -0.65814,1.02866 -1.46253,0.53152 -0.80438,-0.49714 -1.46252,-0.16807 -1.46252,0.73126 0,0.89934 -0.65813,1.22841 -1.46252,0.73127 -0.80439,-0.49714 -1.46252,-0.16808 -1.46252,0.73126 0,0.89933 -0.65814,1.2284 -1.46253,0.73126 -0.80439,-0.49714 -1.46252,-0.16807 -1.46252,0.73126 0,0.89933 -0.65814,1.2284 -1.46252,0.73126 -0.80439,-0.49714 -1.46253,-0.20692 -1.46253,0.64495 0,0.85186 -0.4936,1.4158 -1.09689,1.2532 -0.60329,-0.1626 -3.89397,1.16704 -7.31261,2.95477 -3.41865,1.78773 -6.21572,2.89279 -6.21572,2.4557 0,-0.43709 -1.64534,0.28337 -3.65631,1.60101 -2.01097,1.31763 -3.65631,1.97577 -3.65631,1.46253 0,-0.51326 -1.64534,0.14493 -3.65631,1.46252 -2.01097,1.31763 -3.6563,1.91036 -3.6563,1.31716 0,-0.5932 -0.98721,-0.25925 -2.19379,0.74213 -1.20658,1.00137 -2.19378,1.33044 -2.19378,0.73126 0,-0.59918 -0.9872,-0.27011 -2.19379,0.73126 -1.20658,1.00138 -2.19378,1.33044 -2.19378,0.73126 0,-0.59918 -0.82267,-0.40667 -1.82815,0.42782 -1.00549,0.83447 -2.32176,1.57319 -2.92505,1.64159 -2.2829,0.25886 -4.13296,0.84356 -8.82587,2.78943 -2.23997,0.92879 -4.54345,1.59182 -5.11883,1.47342 -0.57539,-0.11847 -2.03336,0.1889 -3.23994,0.68291 -5.05207,2.06843 -19.62218,5.2123 -20.79548,4.48714 -0.69878,-0.43186 -2.09467,-0.10121 -3.10199,0.7348 -1.00732,0.836 -3.11742,1.54473 -4.68914,1.57496 -1.5717,0.0303 -5.16111,0.41129 -7.97646,0.8468 -14.49462,2.24224 -22.06123,2.9285 -48.99452,4.44358 -9.65265,0.54299 -17.93982,0.57479 -18.41591,0.0706 z M 194.32324,592.61697 c 0.50796,0.50796 0.92356,0.11685 0.92356,-0.86904 0,-0.98593 0.65814,-1.38584 1.46252,-0.8887 0.80439,0.49714 1.46253,0.20692 1.46253,-0.64494 0,-0.85186 0.4936,-1.40902 1.09689,-1.23813 0.60329,0.1709 2.5777,-0.51039 4.38757,-1.51397 1.80987,-1.00359 3.29067,-1.45731 3.29067,-1.00827 0,0.44904 1.48081,-0.1344 3.29068,-1.29661 3.5797,-2.29863 16.73685,-6.35168 24.65395,-7.59463 2.72917,-0.42846 6.60748,-1.10083 8.61844,-1.49413 16.25747,-3.17961 39.84071,-3.17839 65.08227,0.003 2.41316,0.30418 8.00731,0.97549 12.43145,1.49178 4.42413,0.5163 9.26113,1.31614 10.74888,1.77742 1.48777,0.46129 4.44938,1.1246 6.58135,1.47403 2.132,0.34942 5.52169,0.92193 7.53265,1.27222 2.01097,0.35029 6.65112,0.98179 10.31143,1.40333 3.66033,0.42156 9.91262,1.45469 13.89397,2.29584 10.85189,2.29273 17.78892,2.9851 29.90795,2.9851 10.33171,0 15.60322,-0.45923 27.78793,-2.42081 2.81536,-0.45324 6.4351,-0.99547 8.04388,-1.20498 1.60878,-0.2095 4.24132,-0.80387 5.85009,-1.32083 1.60878,-0.51694 6.21572,-1.33913 10.23766,-1.82707 7.07225,-0.85799 11.22175,-1.47305 20.47532,-3.03501 2.41316,-0.40733 6.69104,-1.04337 9.5064,-1.41342 2.81536,-0.37004 7.09324,-0.97832 9.5064,-1.35173 7.63494,-1.18143 27.50727,-2.72067 35.10055,-2.71876 12.2912,0.003 39.67105,2.96837 42.2424,4.57492 0.89831,0.56126 2.94955,1.2117 4.55833,1.44543 1.60877,0.23372 3.91225,0.85405 5.11883,1.37851 1.20658,0.52446 2.68738,1.09267 3.29067,1.26268 0.6033,0.17004 1.26143,0.44031 1.46253,0.60063 0.20109,0.16032 1.95289,0.58378 3.89288,0.94101 1.93998,0.35723 5.6233,1.94493 8.18513,3.52824 2.56184,1.5833 5.08793,2.44871 5.61353,1.9231 0.52558,-0.52513 0.95562,-0.0776 0.95562,0.99487 0,1.07251 0.41251,1.53752 0.91668,1.03335 0.50419,-0.50418 2.65603,-0.0173 4.7819,1.08209 3.25633,1.68392 4.55185,1.68667 8.22409,0.0174 5.43647,-2.47112 9.4777,-5.67541 9.4777,-7.51486 0,-0.77175 1.4808,-2.79755 3.29068,-4.5018 1.80987,-1.70423 4.60694,-4.87687 6.21572,-7.05031 1.60877,-2.17342 4.40585,-5.41562 6.21572,-7.20487 1.80987,-1.78923 3.29068,-3.97721 3.29068,-4.86215 0,-0.88495 1.31627,-2.31344 2.92504,-3.17443 1.60878,-0.86098 2.92505,-2.5239 2.92505,-3.69537 0,-1.17146 1.31627,-2.95195 2.92504,-3.95665 1.60878,-1.00469 2.92505,-2.3532 2.92505,-2.99666 0,-0.64347 1.29505,-2.95316 2.87788,-5.13265 2.95342,-4.06672 3.81989,-12.07222 2.17013,-20.05047 -0.49899,-2.41317 -1.09616,-5.70384 -1.32705,-7.31262 -0.23087,-1.60877 -0.77825,-3.91225 -1.21641,-5.11883 -0.43814,-1.20658 -0.83267,-3.18099 -0.87672,-4.38757 -0.044,-1.20658 -0.44443,-4.00188 -0.88971,-6.2118 -2.0234,-10.04212 -2.45928,-12.2997 -3.03626,-15.72604 -0.64226,-3.81408 -1.59992,-8.88851 -2.96637,-15.7182 -0.44302,-2.21422 -1.08255,-5.6712 -1.42119,-7.68217 -0.64227,-3.81408 -1.59993,-8.88851 -2.96638,-15.7182 -0.44301,-2.21421 -1.08255,-5.67119 -1.42119,-7.68216 -0.64227,-3.81409 -1.59993,-8.88851 -2.96638,-15.7182 -0.44301,-2.21422 -1.08254,-5.6712 -1.42119,-7.68217 -0.67851,-4.02935 -1.72514,-9.55008 -2.97983,-15.7182 -0.45043,-2.21421 -1.00784,-5.34213 -1.23873,-6.9509 -0.23088,-1.60878 -0.77825,-3.91225 -1.21641,-5.11883 -0.43814,-1.20658 -0.83267,-3.18099 -0.87672,-4.38757 -0.044,-1.20658 -0.44444,-4.00189 -0.88972,-6.2118 -2.0234,-10.04212 -2.45927,-12.2997 -3.03625,-15.72604 -0.86839,-5.1569 -2.11096,-11.80487 -3.00695,-16.08775 -0.42071,-2.01097 -1.04197,-5.30165 -1.38062,-7.31262 -0.86839,-5.1569 -2.11096,-11.80487 -3.00695,-16.08775 -0.42071,-2.01097 -1.04197,-5.30165 -1.38062,-7.31261 -0.56886,-3.37818 -1.66295,-9.30197 -2.70119,-14.62523 -0.23534,-1.20658 -0.85313,-3.83913 -1.3729,-5.85009 -0.51975,-2.01097 -1.31283,-6.28885 -1.76237,-9.5064 -0.44955,-3.21755 -1.16218,-7.49543 -1.58362,-9.5064 -0.42144,-2.01097 -0.95516,-4.97258 -1.18605,-6.58135 -0.23087,-1.60878 -0.77825,-3.91225 -1.21641,-5.11883 -0.43814,-1.20659 -0.83267,-3.18099 -0.87672,-4.38757 -0.0761,-2.0834 -0.84085,-6.47765 -2.54535,-14.62523 -0.84498,-4.03908 -1.67475,-8.82728 -2.61579,-15.09467 -1.07177,-7.13792 -6.54735,-13.17907 -16.02504,-17.6802 -4.92847,-2.34063 -9.45445,-4.1505 -10.05774,-4.02194 -0.60329,0.12855 -1.09689,-0.46324 -1.09689,-1.3151 0,-0.85186 -0.65814,-1.14209 -1.46252,-0.64495 -0.80439,0.49714 -1.46253,0.0973 -1.46253,-0.8887 0,-0.98593 -0.4125,-1.38008 -0.91668,-0.8759 -0.50419,0.50417 -2.80076,-0.0576 -5.10352,-1.2484 -2.30274,-1.1908 -4.38718,-1.98723 -4.63208,-1.76983 -0.2449,0.21739 -2.22621,-0.77164 -4.4029,-2.19787 -2.17669,-1.42614 -3.95761,-2.22566 -3.95761,-1.77662 0,0.44904 -1.48081,-0.006 -3.29068,-1.01135 -1.80987,-1.00528 -3.78428,-1.93337 -4.38757,-2.06243 -0.60329,-0.12905 -1.42596,-0.39917 -1.82815,-0.60027 -0.4022,-0.20109 -1.3894,-0.53016 -2.19379,-0.73126 -0.80439,-0.2011 -1.62705,-0.49825 -1.82815,-0.66034 -0.2011,-0.1621 -1.56876,-0.52274 -3.03926,-0.80143 -1.47049,-0.2787 -3.77396,-0.99417 -5.11883,-1.58995 -1.34486,-0.59577 -2.9388,-1.22233 -3.54209,-1.39235 -0.60329,-0.17002 -1.26143,-0.44175 -1.46253,-0.60384 -0.47333,-0.38153 -3.65579,-1.16325 -9.14076,-2.24528 -2.41317,-0.47605 -5.70384,-1.28502 -7.31262,-1.79771 -1.60877,-0.5127 -3.91225,-1.0971 -5.11883,-1.29867 -1.20658,-0.20157 -4.49726,-0.76533 -7.31261,-1.2528 -19.3858,-3.35659 -40.05725,-3.38273 -59.23218,-0.0749 -1.60877,0.27752 -3.25411,0.65968 -3.65631,0.84923 -0.40219,0.18955 -1.38939,0.49755 -2.19378,0.68444 -0.80439,0.18688 -1.95612,0.49798 -2.55942,0.69131 -0.60329,0.19334 -1.75502,0.51605 -2.55941,0.71715 -0.80439,0.20109 -1.79159,0.53016 -2.19378,0.73126 -0.4022,0.2011 -1.22487,0.48956 -1.82816,0.64102 -2.75058,0.69057 -15.77399,7.51959 -16.20962,8.49975 -0.26814,0.60329 -1.41988,1.09689 -2.55942,1.09689 -1.13955,0 -2.07191,0.55249 -2.07191,1.22776 0,0.67527 -1.64534,1.97743 -3.65631,2.89369 -2.01096,0.91626 -3.66144,1.18644 -3.66771,0.60039 -0.006,-0.58605 -1.48708,-1.78822 -3.29068,-2.67151 -1.80359,-0.88328 -7.40792,-3.98234 -12.45405,-6.8868 -5.04613,-2.90445 -9.50734,-5.23606 -9.91379,-5.18135 -0.40645,0.0547 -2.20101,-0.37088 -3.98792,-0.94575 -1.78691,-0.57487 -3.90705,-1.20461 -4.71144,-1.39942 -0.80439,-0.19481 -1.79159,-0.50928 -2.19378,-0.69883 -0.83537,-0.39371 -4.07465,-0.98353 -12.43145,-2.26357 -7.74428,-1.18622 -30.31759,-1.17414 -39.48812,0.0211 -12.37237,1.61258 -13.05347,1.72033 -16.81901,2.66062 -2.01097,0.50216 -5.63071,1.28351 -8.04387,1.73635 -4.95497,0.92981 -8.427,1.74903 -9.5064,2.24302 -0.4022,0.18406 -1.3894,0.48757 -2.19379,0.67446 -0.80438,0.18688 -1.95612,0.49798 -2.55941,0.69131 -0.60329,0.19334 -1.75503,0.51605 -2.55942,0.71715 -0.80438,0.20109 -1.79159,0.53016 -2.19378,0.73126 -0.40219,0.2011 -1.3894,0.53016 -2.19379,0.73126 -0.80438,0.2011 -1.79159,0.53017 -2.19378,0.73126 -0.40219,0.2011 -1.3894,0.53017 -2.19378,0.73126 -0.80439,0.2011 -1.79159,0.53017 -2.19379,0.73126 -0.40219,0.2011 -1.22486,0.47122 -1.82815,0.60028 -0.60329,0.12905 -2.52797,1.03052 -4.27705,2.00328 -1.74909,0.97275 -4.38163,1.97307 -5.85009,2.22294 -1.46847,0.24986 -4.80197,1.58293 -7.40781,2.96236 -2.60583,1.37944 -5.08073,2.48141 -5.49979,2.44881 -0.41905,-0.0326 -2.64598,0.91503 -4.94872,2.10583 -2.30276,1.19078 -4.59933,1.75257 -5.10352,1.24839 -0.50417,-0.50417 -0.91668,-0.10998 -0.91668,0.87591 0,0.98593 -0.65813,1.38584 -1.46252,0.8887 -0.80439,-0.49714 -1.46252,-0.16807 -1.46252,0.73126 0,0.89934 -0.65814,1.2284 -1.46253,0.73126 -0.80438,-0.49714 -1.46252,-0.16807 -1.46252,0.73126 0,0.89934 -0.60507,1.2612 -1.34461,0.80414 -0.73954,-0.45707 -2.30653,0.1309 -3.4822,1.30656 -1.17568,1.17567 -2.54501,1.73017 -3.04295,1.23221 -0.49796,-0.49795 -0.90538,-0.0987 -0.90538,0.88722 0,0.98593 -0.65813,1.38584 -1.46252,0.8887 -0.80439,-0.49714 -1.46252,-0.0973 -1.46252,0.88871 0,0.98593 -0.41644,1.37614 -0.92541,0.86717 -2.03108,-2.03108 -7.61295,7.96899 -8.81615,15.7944 -0.6844,4.45117 -1.65489,9.83696 -2.50363,13.89396 -1.41881,6.78196 -2.3532,12.39981 -3.13392,18.84204 -0.42728,3.52582 -1.15267,7.01863 -1.61198,7.7618 -0.4593,0.74316 -1.06775,2.79442 -1.3521,4.55833 -0.28435,1.76392 -0.88293,5.18153 -1.33018,7.59469 -0.44724,2.41316 -1.09023,6.03291 -1.42887,8.04388 -0.33864,2.01097 -0.97817,5.46794 -1.42118,7.68216 -1.36645,6.82969 -2.32412,11.90412 -2.96639,15.7182 -0.33863,2.01097 -0.95991,5.30165 -1.38061,7.31262 -0.89599,4.28288 -2.13856,10.93085 -3.00696,16.08775 -0.33863,2.01097 -0.97816,5.46795 -1.42118,7.68216 -1.36645,6.82969 -2.32411,11.90412 -2.96639,15.7182 -0.33863,2.01097 -0.97816,5.46795 -1.42117,7.68217 -1.74795,8.73639 -2.34698,12.31362 -3.09335,18.47248 -0.42729,3.52582 -1.15268,7.01863 -1.61199,7.7618 -0.4593,0.74317 -1.086,2.96073 -1.39267,4.9279 -0.30666,1.96716 -0.90524,5.38477 -1.33017,7.59467 -0.42493,2.20992 -1.04967,5.66336 -1.38831,7.67433 -0.33863,2.01097 -0.97816,5.46795 -1.42117,7.68216 -1.36646,6.82969 -2.32412,11.90412 -2.96639,15.7182 -0.33864,2.01097 -0.97817,5.46795 -1.42118,7.68217 -1.36646,6.82969 -2.32412,11.90412 -2.96639,15.7182 -0.33864,2.01097 -0.97817,5.46795 -1.42118,7.68216 -1.36646,6.82969 -2.32412,11.90412 -2.96639,15.71821 -0.33864,2.01096 -0.97817,5.46794 -1.42118,7.68216 -1.74794,8.73639 -2.34697,12.31362 -3.09335,18.47248 -0.42728,3.52582 -1.15268,7.01864 -1.61198,7.7618 -1.00845,1.63171 -1.9955,7.63863 -2.23729,13.61555 -0.2229,5.50992 1.45275,9.68788 4.87247,12.14874 1.46065,1.0511 2.65572,2.50199 2.65572,3.2242 0,0.72221 1.69125,3.15291 3.75832,5.40154 7.34085,7.98559 7.94187,8.7343 7.94187,9.89348 0,0.64467 1.4808,2.63605 3.29067,4.42529 1.80988,1.78925 4.60695,5.01667 6.21573,7.17206 1.60877,2.15538 4.16305,5.1741 5.67618,6.70827 1.51313,1.53416 3.48754,4.25027 4.38757,6.03582 1.93732,3.84338 10.82344,7.30255 14.24121,5.5438 1.30191,-0.66997 2.78271,-0.80252 3.29067,-0.29455 z"
   id="path877" /></g>
<path
   fill="#608F90"
   stroke="#608F90"
   stroke-width="2"
   stroke-miterlimit="10"
   d="M387.012,561.67V548.98  c-40.58-29.655-167.699-26.729-216.611-11.721l21.545,26.736c57.559-24.955,103.335-17.264,155.978-8.414  C360.492,557.688,373.482,559.895,387.012,561.67z M531.291,213.074v73.871l-30.197-28.268l-30.19,28.268v-85.772  c-35.956-0.471-52.33,14.47-57.641,20.792V518.89c54.217-25.248,160.761-22.563,219.125-6.581l-52.372-278.29  C562.033,224.915,545.85,218.089,531.291,213.074L531.291,213.074z M629.867,537.26c-48.912-15.009-176.022-17.935-216.604,11.708  v12.702c13.521-1.775,26.514-3.982,39.079-6.088c52.646-8.85,98.423-16.541,155.98,8.414L629.867,537.26L629.867,537.26z   M400.137,198.509c21.82-18.861,78.969-46.686,197.615,15.23c3.699,1.931,6.084,5.374,6.799,9.179l58.014,308.17  c0.726,3.927-0.341,7.759-2.851,10.832l-37.392,46.414c-3.887,4.838-10.522,6.183-15.891,3.598  c-54.61-26.519-98.688-19.106-149.784-10.509c-62.205,10.478-50.822,10.478-113.026,0c-51.097-8.598-95.173-16.003-149.787,10.509  c-5.365,2.585-11.995,1.24-15.882-3.598l-37.581-46.643c-2.308-2.871-3.396-6.697-2.669-10.604l58.015-308.17  c0.712-3.806,3.1-7.249,6.797-9.179C321.162,151.824,378.311,179.648,400.137,198.509z M387.012,518.903v-296.94  c-9.071-10.812-50.472-46.82-166.757,12.056L167.88,512.315C226.292,496.353,332.768,493.61,387.012,518.903z"
   id="path1237" />
<path
   style="opacity:1;fill:#689a9b;stroke:#608F90;stroke-width:1.88976378;stroke-dashoffset:5.00001;paint-order:fill markers stroke;fill-opacity:1;stroke-opacity:1;stroke-miterlimit:4;stroke-dasharray:none"
   d="M 378.06216,797.63759 C 257.41654,791.64445 144.58456,728.75602 73.219431,627.72939 39.453441,579.92923 15.75475,520.17809 5.8094461,457.76965 2.5858609,437.54112 1.3423934,384.61768 3.574054,362.62875 12.867378,271.06001 50.755327,188.84692 113.31822,124.49479 136.59477,100.55256 154.15374,85.835854 179.89031,68.698704 235.65444,31.567175 294.92072,10.445752 362.62875,3.574054 c 21.98893,-2.2316606 74.91237,-0.9881931 95.1409,2.2353921 87.3868,13.9258109 162.48758,51.7172659 223.44089,112.4376639 65.07375,64.82508 104.8982,148.09301 115.16821,240.80225 2.21227,19.97065 1.84001,66.40335 -0.70488,87.92083 -10.37208,87.69763 -51.29467,171.88942 -114.05446,234.64922 -31.12379,31.1238 -65.95344,55.91362 -106.84793,76.04851 -61.38915,30.22567 -126.50681,43.45702 -196.70932,39.96967 z m 73.12614,-51.09496 c 152.61426,-21.93978 272.28765,-141.80515 295.61133,-296.08559 4.02324,-26.61274 4.34459,-70.70611 0.70346,-96.52651 C 736.77546,277.85713 704.36904,211.23731 651.55393,156.68211 593.88837,97.116624 520.74498,61.176227 438.13935,51.816785 418.04404,49.539933 363.1053,50.831946 344.42413,54.020718 287.21816,63.785463 234.75485,86.309509 187.93419,121.20647 c -17.93712,13.3691 -53.40362,48.86227 -66.99311,67.04345 -36.637321,49.01652 -60.619059,107.48288 -68.163922,166.18041 -3.01996,23.49472 -3.04947,67.6369 -0.06047,90.46734 9.897664,75.60003 42.861131,143.94379 95.705382,198.42774 62.19868,64.12864 141.58037,100.5722 232.56514,106.76895 15.39621,1.04862 50.58494,-0.73173 70.2011,-3.55173 z"
   id="path1246" /><path
   style="opacity:0.75;fill:#689a9b;fill-opacity:1;stroke:none;stroke-width:0;stroke-dashoffset:5.00001;paint-order:fill markers stroke"
   d="m 182.69282,589.56215 c -1.67618,-1.20151 -12.04181,-13.31607 -23.03474,-26.92126 -14.63877,-18.11738 -19.98715,-25.79406 -19.98715,-28.68809 0,-5.55638 56.83543,-307.78704 58.85755,-312.98362 1.37917,-3.54425 4.86457,-5.78298 20.76009,-13.33455 74.12765,-35.21623 134.7963,-39.629 172.92806,-12.57804 l 8.2173,5.82942 5.2675,-4.21885 c 2.89712,-2.32036 10.20351,-6.49227 16.23641,-9.2709 39.35035,-18.12397 92.92285,-11.27661 159.04787,20.32865 14.12489,6.75117 19.72625,10.18025 20.66568,12.65127 2.5764,6.77669 58.80694,309.05241 58.38279,313.84547 -0.3374,3.81294 -4.91414,10.52026 -20.18043,29.57502 -11.80018,14.72848 -21.41651,25.37127 -23.90084,26.45205 -3.58567,1.55989 -5.19323,1.35722 -11.70019,-1.4751 -44.76454,-19.48492 -74.63186,-21.08195 -153.0289,-8.18253 -22.53513,3.70792 -45.0326,6.61184 -51.22382,6.61184 -6.20856,0 -28.62562,-2.90019 -51.22382,-6.62705 -73.85283,-12.17965 -105.24348,-11.15988 -143.29172,4.65502 -15.44907,6.42147 -18.94803,7.08641 -22.79164,4.33125 z m 26.90646,-30.04045 c 21.94138,-7.37301 40.06412,-10.34437 63.09169,-10.34437 21.96121,0 56.26355,4.26118 111.65923,13.87079 l 4.09428,0.71024 -0.43797,-8.38741 -0.43795,-8.3874 -8.96343,-4.7407 c -18.3773,-9.71962 -51.2135,-15.70309 -95.15732,-17.33973 -36.90552,-1.37449 -87.83282,3.03831 -107.83864,9.34413 l -7.92716,2.49864 11.22298,14.18711 c 6.17264,7.80291 11.75838,14.21973 12.41275,14.2596 0.65438,0.0399 8.88107,-2.51204 18.28154,-5.6709 z m 411.81176,-8.84746 c 7.39452,-9.27869 10.45499,-14.17732 9.2595,-14.82092 -3.46795,-1.86694 -22.58472,-5.60931 -41.32126,-8.08921 -25.62311,-3.39137 -89.31987,-3.43697 -112.93685,-0.0809 -23.46296,3.33423 -41.17155,7.99427 -53.38578,14.04854 l -10.59521,5.25178 -0.44258,8.54261 -0.44259,8.54261 4.09889,-0.79956 c 11.81572,-2.30487 70.23159,-11.31907 81.61261,-12.5937 19.16269,-2.14616 46.23103,-1.81599 62.0995,0.75747 7.60993,1.23412 21.1017,4.76459 29.98171,7.84547 8.88002,3.08086 17.24379,5.52369 18.58617,5.42848 1.34239,-0.0952 7.41104,-6.40992 13.48589,-14.03269 z M 385.01604,217.5127 c -13.87205,-14.85594 -45.61671,-21.21523 -78.77025,-15.77974 -18.27323,2.99587 -47.1008,12.33414 -70.01908,22.68164 -9.23436,4.16927 -16.9503,7.74104 -17.14652,7.93726 -0.84918,0.84919 -53.0468,280.78695 -52.46453,281.36922 0.35517,0.35518 6.44887,-0.70321 13.54156,-2.35195 28.76178,-6.68585 45.6543,-8.19932 91.87203,-8.2311 35.5127,-0.0244 46.94211,0.47361 59.96344,2.61286 18.69867,3.07197 40.1215,8.578 49.21351,12.6487 l 6.36236,2.84857 0.37253,-150.102 0.37253,-150.10199 z m 77.87244,289.16614 c 14.32505,-2.50404 26.19453,-3.34571 54.84461,-3.889 40.72003,-0.77219 67.10322,1.26631 97.93901,7.56726 9.62513,1.96679 17.74399,3.33223 18.0419,3.03431 0.45375,-0.45373 -46.70688,-253.79496 -51.0939,-274.47032 -1.42731,-6.72668 -1.53791,-6.82788 -13.37639,-12.23939 -12.29276,-5.61917 -29.98442,-12.81518 -35.7885,-14.55682 l -3.29068,-0.98744 v 36.25021 36.25022 l -8.4095,-8.01382 c -4.62523,-4.4076 -11.16459,-10.56731 -14.53192,-13.68825 l -6.12242,-5.67445 -13.62164,12.62659 -13.62165,12.62658 -0.3884,-40.94007 -0.38841,-40.94008 h -8.51841 c -9.85689,0 -28.03335,4.31586 -36.61523,8.69401 -3.26028,1.66327 -8.24955,5.06267 -11.08728,7.55423 l -5.15949,4.53009 v 150.27501 150.275 l 16.45338,-5.54411 c 9.04937,-3.04927 24.68008,-6.98215 34.73492,-8.73976 z"
   id="path1248" /><path
   style="fill:none;fill-opacity:1;stroke-width:0;stroke-dashoffset:5.00001;paint-order:fill markers stroke;opacity:0"
   d="M 367.8245,745.71501 C 319.35696,739.89585 279.6595,728.05385 240.96989,707.87348 152.97426,661.97525 88.799133,581.51109 64.242494,486.28885 54.98699,450.39917 51.232804,404.09294 54.697516,368.55576 65.028518,262.59175 121.96044,168.19635 210.60329,110.05774 250.99633,83.564971 294.6807,66.58789 345.88582,57.482828 c 24.73859,-4.398905 79.853,-4.764215 104.57122,-0.69312 38.04134,6.265418 69.57772,16.255189 102.3766,32.429805 102.33863,50.467847 171.21388,144.127387 190.36082,258.860927 3.79387,22.73386 3.81873,80.84183 0.0445,103.83912 -6.13862,37.40344 -17.35099,71.88282 -34.07196,104.77534 -50.26586,98.88008 -142.44339,166.57852 -252.85982,185.70918 -13.39994,2.32167 -25.33215,3.14536 -50.45703,3.48313 -18.09872,0.24331 -35.21024,0.16582 -38.0256,-0.1722 z M 200.75605,590.90074 c 20.91093,-9.73528 47.70288,-15.398 72.85239,-15.398 18.85751,0 37.94006,2.26666 81.78461,9.71453 39.73045,6.749 49.46108,6.74893 89.32967,-6.4e-4 44.31305,-7.50201 62.90921,-9.71389 81.66884,-9.71389 25.39798,0 47.57422,4.53653 71.08671,14.54198 11.01454,4.68711 17.22558,5.51006 22.05981,2.92286 3.94373,-2.11063 43.4604,-51.76888 44.50348,-55.9249 1.33637,-5.32446 -57.42925,-315.4601 -60.60785,-319.85804 -3.39637,-4.69927 -8.25689,-7.49004 -29.86258,-17.14622 -39.21808,-17.52766 -71.0946,-25.45276 -102.63877,-25.51795 -27.2727,-0.0564 -45.38696,4.63882 -64.01543,16.59268 l -6.98652,4.48323 -5.44966,-3.76582 c -26.90816,-18.59407 -66.70294,-22.4908 -112.8768,-11.05299 -28.27016,7.00285 -77.53716,27.38171 -84.07924,34.77864 -4.02155,4.54704 -62.90143,316.24353 -60.8663,322.2122 1.51617,4.4467 41.30055,54.57021 44.2528,55.7532 4.48626,1.79767 12.67774,0.71585 19.84484,-2.62087 z"
   id="path843" /></svg>
